<svg width="72" height="71" viewBox="0 0 72 71" fill="none" xmlns="http://www.w3.org/2000/svg">
<g clip-path="url(#clip0_50_43)">
<path d="M40.1 4.8999V10.1999H45.4C43.6 8.2999 41.6 6.2999 40.1 4.8999V4.8999Z" fill="#5661CB"/>
<path d="M8.19995 24.2002C8.19995 24.7002 8.69995 25.2002 9.19995 25.2002H40.5C41 25.2002 41.5 24.7002 41.5 24.2002C41.5 23.7002 41 23.2002 40.5 23.2002H9.19995C8.69995 23.2002 8.19995 23.7002 8.19995 24.2002ZM40.5 31.2002H9.19995C8.69995 31.2002 8.19995 31.7002 8.19995 32.2002C8.19995 32.7002 8.69995 33.2002 9.19995 33.2002H40.5C41 33.2002 41.5 32.7002 41.5 32.2002C41.5 31.7002 41.1 31.2002 40.5 31.2002V31.2002ZM40.5 39.2002H9.19995C8.69995 39.2002 8.19995 39.7002 8.19995 40.2002C8.19995 40.7002 8.69995 41.2002 9.19995 41.2002H40.5C41 41.2002 41.5 40.7002 41.5 40.2002C41.5 39.7002 41.1 39.2002 40.5 39.2002ZM40.5 47.2002H9.19995C8.69995 47.2002 8.19995 47.7002 8.19995 48.2002C8.19995 48.7002 8.69995 49.2002 9.19995 49.2002H40.5C41 49.2002 41.5 48.7002 41.5 48.2002C41.5 47.6002 41.1 47.2002 40.5 47.2002Z" fill="#5661CB"/>
<path d="M49.1 10C43 3.8 40.8 1.6 39.8 0.8C39.6 0.5 39.2 0.3 38.7 0.3H1.4C0.6 0.3 0 0.9 0 1.6V69.6C0 70.4 0.6 71 1.4 71H48.4C49.1 71 49.8 70.4 49.8 69.6V11.3C49.8 11 49.7 10.6 49.4 10.4C49.3 10.3 49.2 10.1 49.1 10ZM40.1 4.9C41.6 6.3 43.6 8.4 45.4 10.2H40.1V4.9ZM47 68.3H2.7V3H37.5V11.5C37.5 11.8 37.6 12.2 37.9 12.4C38.2 12.7 38.5 12.8 38.8 12.8H47V68.3ZM70.6 0H57.4C56.6 0 56 0.6 56 1.4V69.6C56 70.3 56.6 71 57.4 71H70.6C71.3 71 72 70.4 72 69.6V1.4C71.9 0.6 71.3 0 70.6 0ZM69.2 6.2H65.8C65.3 6.2 64.8 6.7 64.8 7.2C64.8 7.7 65.3 8.2 65.8 8.2H69.2V14.2H65.8C65.3 14.2 64.8 14.7 64.8 15.2C64.8 15.7 65.3 16.2 65.8 16.2H69.2V22.2H65.8C65.3 22.2 64.8 22.7 64.8 23.2C64.8 23.7 65.3 24.2 65.8 24.2H69.2V30.2H65.8C65.3 30.2 64.8 30.7 64.8 31.2C64.8 31.7 65.3 32.2 65.8 32.2H69.2V37.1H65.8C65.3 37.1 64.8 37.6 64.8 38.1C64.8 38.6 65.3 39.1 65.8 39.1H69.2V45.1H65.8C65.3 45.1 64.8 45.6 64.8 46.1C64.8 46.6 65.3 47.1 65.8 47.1H69.2V53.1H65.8C65.3 53.1 64.8 53.6 64.8 54.1C64.8 54.6 65.3 55.1 65.8 55.1H69.2V61.1H65.8C65.3 61.1 64.8 61.6 64.8 62.1C64.8 62.6 65.3 63.1 65.8 63.1H69.2V68.2H58.7V2.7H69.2V6.2V6.2Z" fill="#5661CB"/>
</g>
<defs>
<clipPath id="clip0_50_43">
<rect width="71.9" height="71" fill="white"/>
</clipPath>
</defs>
</svg>
