<svg width="67" height="72" viewBox="0 0 67 72" fill="none" xmlns="http://www.w3.org/2000/svg">
<g clip-path="url(#clip0_50_44)">
<path d="M66.4999 69.2C66.1999 68.4 64.0999 63.4 61.5999 59.8C60.6999 58.5 59.7999 57.4 58.7999 56.8C57.3999 55.8 55.0999 55.1 53.3999 54.6C52.9999 54.5 52.6999 54.4 52.2999 54.3L51.7999 54C50.3999 53.6 50.3999 53.6 48.2999 52.9L47.7999 52.8C44.9999 51.9 42.4999 51.1 41.1999 50.8V45.1C42.6999 43.5 48.2999 37 49.5999 28C49.6999 27.6 49.6999 27.1 49.7999 26.7C51.3999 25.9 52.3999 24.9 52.8999 23.7C53.9999 21.2 52.3999 18.9 51.6999 18C51.4999 14.9 50.6999 9.4 46.8999 5.3C43.6999 1.8 39.0999 0 33.1999 0C28.2999 0 24.2999 1.5 21.2999 4.6C17.0999 8.9 15.9999 15 15.7999 18.1C14.9999 19 13.3999 21.2 14.3999 23.6C14.8999 24.8 15.8999 25.8 17.4999 26.6C17.4999 27 17.5999 27.5 17.5999 28C17.5999 28.2 17.5999 28.4 17.6999 28.6C18.8999 38.9 23.5999 43.8 25.2999 45.1V50.7C21.0999 51.9 8.49995 55.7 6.19995 57.9C6.19995 57.9 6.19995 58 6.09995 58C2.49995 61.6 0.199946 69.6 0.0999456 69.9C-0.100054 70.6 0.299946 71.3 0.999946 71.4C1.09995 71.5 1.19995 71.5 1.39995 71.5C1.99995 71.5 2.49995 71.1 2.59995 70.6C2.69995 70.5 4.89995 62.8 7.99995 59.5C8.59995 58.9 10.7999 57.9 13.5999 56.9V70.9C13.5999 71.4 13.9999 71.8 14.4999 71.8C14.9999 71.8 15.3999 71.4 15.3999 70.9V56.3C16.1999 56 17.0999 55.7 17.8999 55.4V70.9C17.8999 71.4 18.2999 71.8 18.7999 71.8C19.3999 71.8 19.6999 71.4 19.6999 70.9V54.9C22.1999 54.1 24.7999 53.3 26.8999 52.8C27.4999 52.7 27.7999 52.2 27.7999 51.6V44.5C27.7999 44.1 27.5999 43.8 27.1999 43.5C27.0999 43.5 21.4999 39.4 20.0999 28.3C20.0999 28.1 20.0999 27.9 19.9999 27.7C23.3999 28.6 27.9999 29 33.9999 29C39.5999 29 43.9999 28.6 47.0999 27.7C45.5999 36.9 39.0999 43.6 38.9999 43.7C38.7999 43.9 38.5999 44.3 38.5999 44.6V51.8C38.5999 52.4 38.9999 52.8 39.4999 53C39.4999 53 42.9999 54.1 46.8999 55.3V71C46.8999 71.5 47.2999 71.9 47.7999 71.9C48.3999 71.9 48.6999 71.5 48.6999 71V55.7C49.5999 56 49.8999 56.1 50.8999 56.4L51.2999 56.5V70.9C51.2999 71.4 51.6999 71.8 52.1999 71.8C52.6999 71.8 53.0999 71.4 53.0999 70.9V57.1C54.5999 57.6 56.2999 58.2 57.2999 58.8C59.6999 60.4 63.0999 67.5 64.0999 70.1C64.2999 70.5 64.6999 70.8 65.1999 70.8C65.2999 70.8 65.4999 70.8 65.6999 70.7C66.4999 70.6 66.7999 69.8 66.4999 69.2V69.2ZM16.5999 22.7C15.9999 21.3 17.7999 19.4 17.7999 19.4C18.0999 19.1 18.1999 18.7 18.1999 18.2C18.4999 15.4 19.4999 9.9 23.0999 6.2C24.4999 4.8 26.0999 3.8 28.0999 3.1V8C28.0999 8.5 28.4999 8.9 28.9999 8.9C29.5999 8.9 29.8999 8.5 29.8999 8V2.8C30.6999 2.7 31.4999 2.6 32.3999 2.5V9.4C32.3999 9.9 32.7999 10.3 33.2999 10.3C33.8999 10.3 34.1999 9.9 34.1999 9.4V2.5C34.9999 2.5 35.7999 2.6 36.4999 2.7V8C36.4999 8.5 36.8999 8.9 37.3999 8.9C37.8999 8.9 38.2999 8.5 38.2999 8V3.1C40.9999 3.8 43.1999 5.1 44.8999 6.9C48.2999 10.6 48.8999 15.8 48.9999 18.5H49.0999C49.0999 18.8 49.1999 19.1 49.3999 19.4C49.4999 19.4 51.0999 21.2 50.4999 22.7C49.9999 23.9 47.3999 26.5 33.8999 26.5C19.6999 26.6 17.0999 23.9 16.5999 22.7V22.7Z" fill="#5661CB"/>
<path d="M46.2 20.0998C46.1 19.5998 45.6 19.1998 45.1 19.3998C37.7 20.8998 30.1 20.8998 22.7 19.4998L22.1 19.3998C21.5 19.2998 21.1 19.5998 21 20.0998C20.9 20.6998 21.2 21.0998 21.7 21.1998L22.3 21.2998C26 21.9998 29.8 22.3998 33.6 22.3998C37.6 22.3998 41.5 21.9998 45.5 21.1998C46 20.9998 46.3 20.4998 46.2 20.0998V20.0998Z" fill="#5661CB"/>
</g>
<defs>
<clipPath id="clip0_50_44">
<rect width="66.6" height="71.9" fill="#5661CB"/>
</clipPath>
</defs>
</svg>
