<svg width="78" height="72" viewBox="0 0 78 72" fill="none" xmlns="http://www.w3.org/2000/svg">
<g clip-path="url(#clip0_50_42)">
<path d="M77.2 20.2998L39.6 0.199805C39.2 -0.00019531 38.7 -0.00019531 38.2 0.199805L0.699995 20.3998C0.199995 20.6998 -0.100005 21.2998 -4.86709e-06 21.9998C0.0999951 22.6998 0.699995 22.9998 1.4 22.9998H6.4V69.9998C6.4 70.7998 7 71.3998 7.8 71.3998H70C70.8 71.3998 71.4 70.7998 71.4 69.8998V22.9998H76.5C77.1 22.9998 77.7 22.5998 77.9 21.8998C78.1 21.2998 77.8 20.5998 77.2 20.2998V20.2998ZM55.4 68.4998H22.6V39.2998H55.5V68.4998H55.4ZM68.5 68.4998H58.3V37.8998C58.3 37.0998 57.7 36.4998 56.9 36.4998H21.1C20.3 36.4998 19.7 37.0998 19.7 37.8998V68.5998H9.2V21.5998C9.2 20.7998 8.6 20.1998 7.8 20.1998H7L38.9 3.0998L70.8 20.1998H70C69.2 20.1998 68.6 20.7998 68.6 21.5998V68.4998H68.5Z" fill="#5661CB"/>
<path d="M26.6 52.0999H51.9001C52.5001 52.0999 53 51.5999 53 50.9999C53 50.3999 52.5001 49.8999 51.9001 49.8999H26.6C26 49.8999 25.5 50.3999 25.5 50.9999C25.5 51.5999 26 52.0999 26.6 52.0999ZM26.6 58.4999H51.9001C52.5001 58.4999 53 57.9999 53 57.3999C53 56.7999 52.5001 56.2999 51.9001 56.2999H26.6C26 56.2999 25.5 56.7999 25.5 57.3999C25.5 57.9999 26 58.4999 26.6 58.4999ZM26.6 45.3999H51.9001C52.5001 45.3999 53 44.8999 53 44.2999C53 43.6999 52.5001 43.1999 51.9001 43.1999H26.6C26 43.1999 25.5 43.6999 25.5 44.2999C25.5 44.8999 26 45.3999 26.6 45.3999ZM26.6 65.0999H51.9001C52.5001 65.0999 53 64.5999 53 63.9999C53 63.3999 52.4001 62.9999 51.9001 62.9999H26.6C26 62.9999 25.5 63.4999 25.5 64.0999C25.5 64.6999 26 65.0999 26.6 65.0999ZM20.9 20.8999H14.7C13.9 20.8999 13.3 21.4999 13.3 22.2999C13.3 23.0999 13.9 23.6999 14.7 23.6999H20.9C21.7 23.6999 22.3 23.0999 22.3 22.2999C22.3 21.4999 21.6 20.8999 20.9 20.8999ZM34.9001 20.8999H28.7C27.9 20.8999 27.3 21.4999 27.3 22.2999C27.3 23.0999 27.9 23.6999 28.7 23.6999H34.9001C35.7001 23.6999 36.3 23.0999 36.3 22.2999C36.3 21.4999 35.7001 20.8999 34.9001 20.8999ZM48.9001 20.8999H42.7001C41.9001 20.8999 41.3 21.4999 41.3 22.2999C41.3 23.0999 41.9001 23.6999 42.7001 23.6999H48.9001C49.7001 23.6999 50.3 23.0999 50.3 22.2999C50.3 21.4999 49.7001 20.8999 48.9001 20.8999ZM63 20.8999H56.8C56 20.8999 55.4001 21.4999 55.4001 22.2999C55.4001 23.0999 56 23.6999 56.8 23.6999H63C63.8 23.6999 64.4001 23.0999 64.4001 22.2999C64.4001 21.4999 63.8 20.8999 63 20.8999V20.8999Z" fill="#5661CB"/>
</g>
<defs>
<clipPath id="clip0_50_42">
<rect width="78" height="71.5" fill="white"/>
</clipPath>
</defs>
</svg>
