<svg width="120" height="120" viewBox="0 0 120 120" fill="none" xmlns="http://www.w3.org/2000/svg">
<path d="M62 43.2411C62 42.1365 61.1046 41.2411 60 41.2411C58.8954 41.2411 58 42.1365 58 43.2411H62ZM58 57.9789C58 59.0834 58.8954 59.9789 60 59.9789C61.1046 59.9789 62 59.0834 62 57.9789H58ZM62 58.0001C62 56.8955 61.1046 56.0001 60 56.0001C58.8954 56.0001 58 56.8955 58 58.0001H62ZM58 81.0001C58 82.1046 58.8954 83.0001 60 83.0001C61.1046 83.0001 62 82.1046 62 81.0001H58ZM58 43.2411V57.9789H62V43.2411H58ZM58 58.0001L58 81.0001H62L62 58.0001H58Z" fill="#5661CB"/>
<path d="M76 58L62.1213 44.1213C60.9497 42.9497 59.0503 42.9497 57.8787 44.1213L44 58" stroke="#5661CB" stroke-width="4" stroke-linecap="round" stroke-linejoin="round"/>
<path d="M44 35L76 35" stroke="#5661CB" stroke-width="4" stroke-linecap="round"/>
</svg>
